<?xml version="1.0" standalone="no"?>
<!DOCTYPE svg PUBLIC "-//W3C//DTD SVG 20010904//EN"
 "http://www.w3.org/TR/2001/REC-SVG-20010904/DTD/svg10.dtd">
<svg version="1.0" xmlns="http://www.w3.org/2000/svg"
 width="500.000000pt" height="500.000000pt" viewBox="0 0 500.000000 500.000000"
 preserveAspectRatio="xMidYMid meet">
<metadata>
Created by potrace 1.15, written by Peter Selinger 2001-2017
</metadata>
<g transform="translate(0.000000,500.000000) scale(0.100000,-0.100000)"
fill="#000000" stroke="none">
<path d="M2030 4470 c13 -24 63 -60 83 -60 9 0 17 -3 19 -7 2 -5 26 -24 53
-42 28 -19 67 -52 87 -72 20 -21 52 -45 70 -55 18 -9 41 -23 50 -31 9 -8 22
-12 27 -8 6 3 11 -2 11 -13 0 -21 23 -46 33 -36 3 3 3 -3 0 -15 -6 -24 9 -28
27 -6 10 11 -1 26 -58 83 -77 76 -199 172 -219 172 -7 0 -13 4 -13 8 0 9 -54
37 -56 30 -1 -1 -10 4 -20 13 -11 9 -38 26 -61 37 -40 19 -42 19 -33 2z"/>
<path d="M3134 4185 c10 -8 19 -26 19 -40 0 -14 5 -25 11 -25 6 0 19 -7 29
-14 15 -11 16 -19 8 -34 -16 -30 -21 -73 -11 -93 7 -11 7 -20 0 -24 -5 -3 -10
-15 -10 -25 0 -10 -7 -26 -16 -34 -8 -9 -14 -16 -12 -17 2 -1 23 -3 46 -5 24
-2 56 -10 70 -19 15 -8 39 -19 54 -25 15 -7 36 -26 47 -44 26 -42 71 -84 71
-66 0 10 3 11 11 3 8 -8 18 -8 35 -1 25 12 31 32 14 43 -5 3 -10 13 -10 21 0
8 5 12 10 9 6 -3 10 1 10 9 0 22 -3 21 -40 -14 -18 -16 -36 -30 -40 -30 -13 0
-18 38 -7 49 6 6 17 30 24 54 13 41 12 43 -18 71 -23 20 -28 30 -19 36 9 6 7
11 -8 19 -12 6 -19 17 -16 25 3 9 -7 20 -25 29 -29 15 -31 14 -31 -4 0 -11 4
-18 9 -15 8 5 26 -23 19 -30 -2 -1 -18 11 -36 27 -38 34 -54 71 -46 104 3 13
3 29 -1 35 -10 16 -39 -26 -31 -45 3 -9 -1 -15 -9 -15 -8 0 -14 3 -13 8 6 30
-48 92 -82 92 -24 -1 -24 -1 -6 -15z"/>
<path d="M2778 4144 c-18 -9 -28 -11 -28 -4 0 6 -5 8 -11 5 -6 -5 -4 -12 8
-20 10 -7 21 -11 25 -9 16 10 7 -17 -12 -36 -17 -17 -24 -18 -41 -9 -34 17
-37 -1 -4 -27 21 -16 37 -21 54 -17 l24 6 -23 -23 c-16 -16 -24 -19 -30 -10
-4 6 -7 -2 -6 -19 1 -30 3 -31 41 -31 22 0 74 -1 115 -3 l75 -5 28 62 c39 87
34 96 -19 32 -26 -31 -51 -56 -57 -56 -6 0 -1 10 10 23 11 12 18 28 16 35 -6
16 -23 6 -23 -14 0 -28 -33 -53 -62 -47 -30 6 -39 39 -14 49 9 3 12 12 9 21
-4 9 1 21 11 28 10 8 13 16 7 19 -10 7 -41 -31 -41 -50 0 -6 -7 -17 -15 -24
-12 -10 -15 -10 -15 4 0 9 -4 16 -8 16 -17 0 -9 36 14 67 39 52 27 68 -28 37z"/>
<path d="M2195 3885 c8 -27 15 -51 15 -52 0 0 -9 1 -21 4 -28 8 -68 -36 -65
-70 3 -23 1 -25 -21 -16 -31 12 -55 -1 -80 -44 -24 -39 -16 -64 28 -89 16 -10
27 -13 24 -8 -10 16 8 11 35 -10 31 -24 59 -28 40 -5 -10 12 -6 22 19 56 20
28 29 50 25 63 -3 14 2 25 17 34 20 13 21 12 14 -5 -4 -10 -7 -33 -6 -51 1
-18 -2 -32 -6 -31 -22 4 -25 -3 -7 -17 18 -15 18 -15 -8 -11 -39 6 -35 -9 7
-28 20 -10 51 -15 77 -13 33 2 43 0 43 -12 0 -11 -19 -17 -80 -22 -125 -12
-177 -3 -221 38 -37 33 -68 47 -46 21 9 -10 7 -19 -4 -35 -22 -31 -42 -27 -52
10 -12 48 -31 47 -25 -1 3 -25 1 -47 -6 -55 -10 -11 -8 -16 6 -24 10 -6 14
-14 10 -18 -5 -5 -12 -2 -18 6 -8 13 -10 13 -20 0 -9 -12 -10 -12 -5 4 6 17 5
17 -11 5 -14 -12 -16 -12 -8 0 6 11 4 13 -8 8 -9 -3 -18 -1 -21 6 -3 7 -5 6
-5 -4 -1 -21 19 -39 44 -39 11 0 28 -9 38 -20 9 -11 12 -20 7 -20 -6 0 -13 7
-16 15 -4 9 -19 15 -36 15 -24 0 -27 -3 -19 -17 5 -10 5 -27 0 -42 -9 -25 -8
-25 6 -7 23 30 18 -1 -6 -40 -11 -19 -18 -38 -14 -44 3 -5 -6 -38 -21 -72 -35
-79 -52 -101 -25 -30 12 30 18 58 15 64 -4 7 -2 8 4 4 14 -9 15 3 3 23 -8 12
-13 11 -30 -10 -11 -13 -20 -30 -21 -38 0 -10 -8 -12 -30 -7 -23 4 -33 1 -42
-14 -7 -11 -24 -20 -37 -20 -13 0 -21 -3 -18 -7 4 -3 -1 -12 -11 -19 -9 -7
-17 -17 -17 -23 0 -5 -9 -17 -20 -25 -18 -14 -18 -15 -2 -16 13 0 15 -3 8 -12
-6 -7 -23 -28 -38 -46 -14 -19 -43 -44 -63 -57 -36 -23 -41 -23 -146 -14 -85
8 -121 16 -166 37 -31 15 -54 24 -52 20 8 -13 83 -49 154 -74 l65 -23 -72 2
c-87 2 -82 -15 6 -21 52 -4 59 -7 56 -23 -2 -11 0 -19 6 -19 5 0 9 -6 9 -14 0
-8 15 -26 33 -40 17 -14 26 -26 18 -26 -19 0 53 -48 84 -56 29 -7 41 12 31 50
-8 33 -42 43 -67 20 -27 -24 -33 -12 -8 15 17 18 30 22 68 20 34 -2 56 3 75
17 52 35 78 64 72 80 -3 9 -1 12 4 9 10 -6 40 17 40 31 0 7 -121 -1 -155 -10
-11 -4 -4 2 15 11 28 14 60 18 158 18 l124 0 21 30 c55 78 114 135 100 98 -3
-10 -11 -24 -17 -32 -9 -12 -8 -13 6 -8 22 8 14 -15 -19 -59 -13 -17 -23 -33
-23 -36 0 -8 89 -16 111 -11 10 3 19 14 19 24 0 12 5 16 15 13 12 -5 12 -8 1
-19 -7 -8 -17 -35 -21 -60 -3 -26 -8 -56 -10 -66 -2 -11 -11 -72 -20 -136 -9
-64 -18 -120 -20 -124 -3 -3 -14 -82 -25 -175 -11 -93 -25 -194 -30 -224 -15
-87 -18 -110 -26 -185 -3 -38 -8 -81 -10 -95 -1 -14 -6 -63 -10 -110 -6 -87
-22 -135 -17 -55 2 35 -2 47 -17 58 -19 13 -19 15 -3 28 15 13 16 12 9 -6 -6
-16 -5 -17 5 -8 6 6 14 35 17 64 5 51 5 52 -21 47 -15 -3 -24 -2 -22 3 3 4 1
10 -5 14 -5 3 -10 2 -10 -3 0 -18 -29 -21 -45 -6 -8 9 -20 12 -27 7 -7 -4 -19
-8 -26 -9 -11 -2 -11 0 0 14 11 14 10 15 -6 9 -14 -6 -17 -4 -12 9 6 14 4 15
-10 3 -20 -16 -58 -20 -44 -4 6 8 0 11 -23 11 -26 -1 -31 2 -29 18 3 17 1 18
-12 7 -19 -16 -37 -6 -29 17 6 16 5 16 -13 0 -19 -16 -20 -16 -33 4 -12 19
-11 24 7 39 12 9 19 19 16 21 -2 3 1 10 9 16 15 13 43 -1 33 -17 -4 -6 -11 -9
-15 -7 -4 3 -8 -2 -8 -10 0 -11 5 -10 22 6 12 11 25 17 29 13 4 -5 6 -2 4 6
-2 8 6 17 16 19 14 3 17 0 13 -12 -8 -19 -3 -20 15 -3 7 7 27 23 45 35 l31 22
-3 -25 c-2 -23 -1 -24 14 -12 17 15 50 15 60 -1 3 -5 15 -11 26 -14 16 -4 21
0 22 16 1 12 -1 15 -4 9 -7 -20 -27 -15 -42 10 -13 21 -13 22 6 5 18 -17 20
-17 41 2 21 20 40 11 26 -12 -4 -7 2 -5 13 5 16 13 25 44 38 128 17 107 17
110 -1 124 -23 18 -31 18 -40 3 -4 -6 -3 -9 2 -5 5 3 18 -1 29 -9 10 -8 14
-14 8 -14 -7 0 -14 4 -17 9 -3 4 -17 7 -31 5 -21 -2 -25 1 -20 15 4 15 1 17
-20 13 -14 -2 -25 -9 -25 -15 0 -6 -6 -2 -14 8 -8 11 -12 24 -8 30 3 5 -1 4
-10 -3 -12 -10 -20 -8 -42 9 -14 11 -34 22 -44 24 -9 1 -16 8 -15 14 2 6 -2
12 -7 12 -6 1 -13 2 -18 3 -15 2 -61 44 -55 50 14 13 32 6 26 -11 -5 -15 -3
-16 7 -6 11 10 17 9 32 -4 10 -9 18 -12 18 -7 0 12 50 14 71 3 12 -6 16 -4 15
8 0 9 5 18 12 20 6 3 12 0 12 -7 0 -6 -6 -8 -12 -4 -10 5 -10 4 -1 -6 9 -10
16 -9 34 4 15 10 26 12 35 6 14 -12 64 4 64 20 0 12 32 10 41 -3 9 -13 31 82
24 104 -4 11 -2 19 4 19 6 0 11 5 11 11 0 6 -8 8 -17 5 -17 -6 -17 -5 0 8 25
20 37 143 14 143 -9 0 -14 -4 -12 -8 3 -3 -1 -12 -9 -18 -9 -7 -13 -28 -12
-54 3 -48 -26 -86 -50 -66 -8 7 -14 7 -19 -1 -5 -9 -10 -9 -18 -1 -19 19 -31
12 -13 -8 17 -19 17 -19 -3 -14 -12 3 -21 11 -21 18 0 12 -24 28 -45 30 -5 0
-16 4 -24 9 -10 6 -12 5 -7 -2 5 -8 2 -10 -8 -6 -9 3 -14 10 -11 14 8 12 -21
6 -38 -8 -8 -7 -21 -11 -28 -9 -8 2 -11 2 -6 0 13 -8 -3 -23 -25 -23 -25 0
-80 -38 -73 -51 4 -5 2 -9 -2 -9 -5 0 -15 -16 -22 -35 -7 -20 -17 -32 -23 -29
-5 4 -2 -6 7 -20 10 -15 14 -26 9 -25 -5 1 -13 0 -19 -1 -5 -1 -21 -3 -35 -4
-47 -2 -82 -90 -94 -234 -2 -23 -5 -45 -8 -47 -2 -3 -3 -59 -2 -125 2 -68 -1
-118 -6 -115 -4 3 -11 -8 -15 -25 -4 -16 -10 -30 -14 -30 -10 0 -13 -33 -13
-173 0 -121 -7 -151 -23 -90 -7 28 -39 66 -47 57 -14 -13 11 -78 42 -111 67
-72 130 -150 130 -162 0 -6 4 -11 9 -11 15 0 92 -121 84 -132 -4 -7 6 -9 28
-5 105 19 115 19 167 -3 28 -12 58 -30 68 -41 9 -10 34 -23 54 -29 44 -12 68
-33 114 -103 36 -53 44 -73 27 -63 -11 7 3 -60 22 -105 19 -42 26 -108 12
-109 -13 -2 -20 13 -41 88 -10 34 -26 71 -37 82 -18 20 -19 19 -104 -67 -88
-90 -94 -92 -32 -13 43 54 73 109 64 118 -3 4 -34 -25 -69 -63 -53 -59 -61
-72 -48 -81 12 -9 9 -14 -22 -33 -35 -22 -66 -23 -66 -1 0 5 -6 10 -14 10 -8
0 -18 9 -21 20 -4 11 -11 18 -16 15 -5 -4 -9 0 -9 8 0 20 49 42 87 38 24 -2
40 5 67 31 33 30 35 37 30 70 -4 21 -10 35 -14 33 -13 -8 -153 24 -170 39 -8
8 -25 17 -38 20 -12 4 -27 17 -33 28 -7 13 -14 17 -21 10 -6 -6 -3 -22 10 -46
14 -26 18 -48 15 -76 -3 -21 -2 -51 1 -66 7 -25 8 -26 27 -8 19 17 20 17 33
-2 19 -25 10 -33 -10 -8 -15 18 -15 18 -10 -11 4 -26 2 -30 -20 -30 -13 0 -24
4 -24 8 0 5 -4 6 -9 3 -5 -3 -11 0 -14 8 -6 16 -100 66 -123 66 -15 0 -54 -56
-54 -78 0 -7 8 -15 18 -19 9 -3 35 -14 58 -24 22 -11 46 -19 53 -19 7 0 11 -6
8 -14 -3 -7 1 -23 9 -34 20 -29 0 -38 -27 -11 -14 14 -28 19 -42 15 -12 -3
-25 -6 -28 -6 -3 0 -20 -20 -37 -44 -36 -49 -69 -61 -102 -36 -19 14 -21 20
-11 38 9 17 8 23 -11 36 -16 12 -25 13 -35 4 -7 -6 -16 -8 -20 -5 -3 4 -14 2
-24 -4 -25 -13 -25 5 0 30 10 10 21 36 23 57 3 22 3 31 1 22 -5 -21 -10 -22
-42 -4 -14 8 -30 12 -37 9 -6 -2 -14 3 -17 11 -4 9 -13 16 -21 16 -12 0 -10
-9 9 -46 31 -58 33 -88 6 -79 -10 3 -24 -1 -31 -10 -7 -8 -16 -12 -21 -9 -5 3
-9 -2 -9 -10 0 -9 -9 -16 -20 -16 -11 0 -20 -7 -20 -16 0 -8 -4 -13 -9 -9 -15
9 -25 -15 -11 -28 9 -9 14 -8 24 5 8 11 17 14 27 7 11 -7 10 -9 -6 -9 -17 0
-18 -2 -5 -11 13 -10 13 -10 0 -6 -21 6 -63 -11 -55 -23 3 -6 -1 -7 -9 -4 -14
5 -21 -5 -17 -28 0 -4 -8 -10 -19 -13 -11 -4 -20 -14 -20 -23 1 -16 2 -15 11
0 12 22 29 23 29 3 0 -8 -5 -15 -11 -15 -6 0 -8 -9 -4 -20 4 -12 0 -29 -10
-42 -10 -14 -16 -17 -14 -8 4 33 -2 51 -13 48 -7 -3 -13 -11 -14 -19 0 -8 -2
-25 -3 -39 -1 -22 -9 -27 -64 -43 -34 -10 -75 -23 -92 -29 -16 -6 -46 -12 -65
-12 l-35 0 20 -22 c13 -14 38 -24 75 -29 103 -14 270 -6 310 15 8 4 30 6 47 5
22 -2 31 1 26 9 -3 6 0 6 8 -1 16 -15 33 -17 24 -3 -3 6 1 7 9 4 9 -4 16 -1
16 6 0 7 22 -10 49 -38 28 -29 55 -52 62 -52 8 0 8 5 -2 17 -13 17 -12 17 6 2
18 -14 51 -16 275 -12 140 2 271 6 290 8 19 2 43 -1 53 -7 11 -5 17 -6 14 -1
-6 9 21 13 110 17 22 0 39 4 37 8 -6 9 54 28 71 22 8 -4 15 -1 15 4 0 7 20 9
53 6 92 -7 290 -35 347 -49 30 -8 123 -16 205 -20 83 -3 276 -10 430 -17 350
-14 687 -14 712 1 17 10 16 10 -4 11 -12 0 -25 4 -28 10 -4 6 -14 5 -28 -3
-30 -19 -137 -9 -137 12 -1 18 -18 31 -34 25 -14 -5 -15 -9 -4 -15 10 -7 9 -9
-4 -9 -10 0 -18 5 -18 10 0 6 -7 10 -16 10 -8 0 -12 5 -9 10 3 6 0 10 -8 10
-8 0 -18 -7 -21 -16 -6 -15 -8 -15 -25 0 -11 10 -25 14 -36 10 -10 -4 -21 -1
-26 7 -7 11 -13 9 -28 -11 l-20 -25 3 28 c2 15 -1 30 -7 34 -6 3 -7 1 -3 -5 4
-8 -3 -16 -20 -22 -21 -9 -29 -7 -40 7 -8 11 -13 13 -14 6 0 -17 -28 -16 -46
1 -18 19 -18 26 1 26 8 0 15 5 15 10 0 6 -10 10 -22 10 -13 0 -33 3 -45 6 -19
5 -23 2 -23 -15 0 -12 -6 -21 -15 -21 -8 0 -15 5 -15 10 0 15 -16 12 -34 -5
-18 -19 -40 -20 -33 -2 4 11 -11 13 -74 9 -68 -4 -79 -2 -79 12 0 9 -3 16 -7
17 -54 5 -90 2 -87 -6 2 -6 -14 -11 -36 -12 -29 -1 -40 3 -40 14 0 12 -3 12
-21 -1 -19 -13 -24 -13 -44 0 -16 10 -25 12 -30 5 -8 -13 -55 -14 -75 -1 -9 5
-17 5 -21 -1 -4 -6 -22 -5 -50 5 -26 9 -45 11 -47 6 -2 -6 -12 -5 -25 2 -21
11 -21 10 -5 -9 10 -11 18 -24 18 -29 0 -5 -5 -1 -11 8 -8 15 -25 18 -97 18
-48 0 -82 4 -75 8 23 15 -4 32 -73 46 l-69 14 75 1 c67 1 73 3 59 16 -9 9 -49
29 -90 45 -86 34 -80 39 12 10 35 -12 103 -27 151 -35 l88 -14 29 30 c37 36
87 38 211 8 47 -11 99 -23 115 -26 17 -2 63 -13 104 -24 41 -10 87 -19 102
-19 15 0 49 -6 75 -14 27 -8 76 -19 109 -25 33 -6 74 -13 90 -17 29 -5 29 -5
11 10 -11 9 -16 16 -12 16 4 0 19 -9 33 -20 14 -11 33 -20 42 -20 11 1 8 5 -9
16 l-25 15 27 -5 c14 -3 33 -8 41 -12 20 -7 29 32 11 47 -11 9 -19 8 -37 -7
-18 -16 -19 -16 -8 -2 7 10 11 27 8 38 -4 16 0 20 19 20 13 0 24 5 24 10 0 6
5 10 11 10 5 0 7 -5 3 -12 -5 -7 -3 -8 6 -3 7 4 26 8 41 7 23 0 26 2 17 12 -7
7 -22 11 -35 8 -17 -3 -25 2 -32 19 -9 25 -16 17 -23 -26 -3 -19 -4 -19 -26 3
-26 26 -38 28 -46 7 -3 -8 -11 -15 -17 -15 -7 0 -5 8 6 20 11 13 15 25 10 37
-8 17 -8 17 -12 0 -4 -13 -10 -16 -26 -11 -27 8 -37 22 -30 43 2 9 -1 7 -8 -4
-7 -11 -17 -23 -23 -27 -8 -5 -7 -8 2 -8 6 0 12 -5 12 -11 0 -6 -9 -9 -20 -6
-11 3 -20 1 -20 -4 0 -10 -71 -1 -80 10 -3 3 -16 7 -30 7 -14 1 -40 6 -58 12
-29 10 -33 9 -28 -5 5 -13 4 -14 -8 -4 -8 7 -13 21 -11 32 2 12 -2 19 -11 19
-10 0 -13 -8 -10 -25 3 -14 0 -25 -5 -25 -5 0 -9 5 -9 11 0 6 -7 9 -14 6 -9
-4 -13 -1 -11 6 12 40 14 67 5 67 -5 0 -10 -9 -10 -19 0 -32 -11 -51 -29 -51
-10 0 -21 3 -25 7 -8 8 -27 13 -71 17 -57 7 -84 17 -78 32 6 16 -13 19 -22 4
-10 -16 -38 -12 -32 5 5 11 1 12 -19 5 -33 -13 -34 -13 -34 6 0 14 -2 14 -15
0 -8 -8 -15 -23 -15 -33 0 -12 -3 -14 -8 -6 -5 8 -43 13 -107 15 -88 3 -97 5
-77 16 12 7 35 14 51 15 18 1 27 7 24 14 -3 7 -9 11 -13 8 -5 -3 -80 -7 -167
-9 -87 -2 -180 -8 -208 -12 -44 -6 -49 -6 -37 8 9 11 50 18 155 27 296 24 279
22 265 38 -10 12 -28 14 -93 10 l-80 -6 63 20 c152 48 21 51 -248 5 -29 -5
-28 -4 10 9 25 8 70 17 100 21 30 3 78 10 105 16 44 10 47 13 25 19 -14 4 20
7 82 8 77 1 108 -2 111 -11 6 -18 16 -6 23 29 6 29 5 30 -32 29 -26 -1 -45 5
-62 20 -13 13 -30 20 -38 17 -8 -3 -14 0 -14 7 0 10 -3 10 -15 0 -12 -10 -18
-10 -30 0 -16 13 -39 4 -29 -12 5 -7 -2 -9 -20 -4 -15 4 -26 2 -26 -4 0 -5 -7
-10 -15 -10 -14 0 -191 -42 -220 -52 -5 -1 -11 1 -12 6 -1 5 -7 12 -13 16 -19
12 16 27 120 54 63 16 101 21 124 16 29 -6 33 -5 29 10 -3 12 4 24 21 36 35
22 122 14 231 -22 86 -28 196 -59 455 -126 91 -23 167 -45 170 -48 3 -3 25 -6
50 -8 24 -2 53 -11 64 -20 11 -10 16 -11 11 -3 -6 11 2 12 46 7 125 -15 457
-80 489 -96 9 -4 30 -11 47 -14 l31 -7 -5 58 c-4 57 -4 59 41 113 25 30 46 58
46 61 0 11 -29 19 -35 9 -3 -6 -16 -5 -32 1 -18 7 -28 6 -33 -1 -4 -6 -14 -8
-23 -4 -9 3 -17 2 -17 -3 0 -4 -9 -14 -21 -21 -16 -10 -24 -11 -35 -1 -11 9
-18 8 -34 -6 -19 -18 -20 -17 -20 3 0 12 -5 22 -10 22 -6 0 -9 -5 -8 -12 5
-19 -35 -22 -48 -3 -8 11 -21 16 -34 12 -13 -3 -20 0 -20 9 0 8 -7 28 -15 44
-14 26 -14 34 -1 65 9 20 11 33 6 30 -11 -7 -9 23 3 43 5 6 6 12 2 12 -8 0
-47 -23 -67 -39 -24 -19 -23 -2 2 24 12 13 17 28 13 43 -5 21 -23 31 -23 13 0
-5 -7 -11 -14 -14 -10 -4 -13 -1 -10 7 3 8 -7 18 -24 25 -22 9 -28 17 -25 32
3 10 1 19 -5 19 -6 0 -9 12 -7 28 2 18 8 27 20 25 12 -1 15 4 12 17 -2 10 -1
24 4 31 7 12 12 12 31 0 18 -10 20 -10 11 0 -15 15 -17 33 -4 25 5 -4 11 -1
13 6 3 7 9 8 19 3 26 -17 41 -15 36 6 -7 25 1 24 31 -3 l25 -23 -5 22 c-5 20
-3 22 26 16 17 -3 28 -3 25 1 -3 3 -27 8 -54 10 -26 3 -80 10 -119 17 -59 9
-97 8 -208 -6 -121 -14 -140 -14 -160 -1 -13 8 -39 17 -58 20 -48 7 -223 56
-235 66 -5 4 -22 10 -37 14 -15 3 -29 14 -32 24 -9 28 -9 76 -1 96 6 15 5 17
-5 11 -9 -5 -11 -4 -6 4 4 6 11 9 16 6 11 -7 33 32 25 45 -3 6 -2 10 2 10 5 0
24 14 42 31 18 16 39 28 46 25 15 -5 14 31 0 55 -8 12 -6 12 8 0 15 -12 17
-12 11 3 -4 9 -1 16 6 16 8 0 10 8 7 23 -6 20 -5 21 7 4 12 -16 14 -16 20 -2
3 9 2 14 -3 11 -5 -3 -12 1 -15 10 -3 8 -10 13 -16 9 -9 -5 -42 46 -39 62 3
20 -2 24 -16 13 -18 -15 -20 0 -2 20 10 12 9 12 -4 2 -9 -6 -18 -9 -22 -6 -3
3 -10 -5 -17 -18 -11 -22 -10 -22 4 -4 10 12 16 15 16 7 0 -7 -19 -32 -42 -56
-44 -43 -87 -63 -90 -42 0 7 -2 17 -2 23 -1 6 -6 18 -11 25 -10 14 -11 47 -2
101 2 15 1 25 -4 22 -4 -2 -13 5 -19 16 -8 14 -8 20 0 20 7 0 5 9 -4 22 -22
31 -20 45 2 17 13 -15 21 -19 26 -10 5 7 2 10 -6 9 -7 -2 -13 6 -13 17 0 11
-4 26 -9 33 -4 7 -5 16 -2 19 3 3 -2 12 -12 19 -15 12 -15 12 6 7 21 -5 22 -3
17 26 -3 20 -2 30 4 27 5 -4 12 -2 15 3 4 5 -1 8 -10 7 -16 -2 -42 -36 -28
-36 4 0 -1 -6 -11 -14 -11 -8 -23 -12 -27 -9 -5 2 -11 -3 -14 -11 -8 -20 -24
-11 -24 12 0 13 2 14 9 4 6 -10 12 -7 25 13 9 14 14 31 10 37 -4 6 -3 8 3 5 6
-4 13 -1 16 7 9 22 -24 12 -45 -14 -22 -27 -23 -26 -32 18 -5 28 -2 35 12 39
10 2 27 18 37 35 l18 31 -35 -26 c-19 -15 -38 -27 -41 -27 -4 0 -7 15 -7 33 0
21 -3 27 -9 19 -4 -7 -3 -47 4 -88 6 -41 8 -71 4 -67 -17 17 -60 362 -57 450
l3 88 214 3 214 3 -6 -45 c-5 -31 3 -96 23 -203 16 -87 38 -219 50 -293 12
-74 23 -144 25 -155 17 -110 30 -149 61 -187 38 -44 41 -59 19 -82 -8 -8 -15
-30 -15 -48 0 -59 31 -210 46 -225 10 -10 14 -11 14 -2 0 7 3 10 6 6 6 -6 19
2 56 38 11 11 17 14 13 6 -5 -9 1 -8 18 4 14 9 32 18 39 19 7 2 30 10 50 20
21 9 46 16 57 16 11 0 22 4 25 9 3 5 15 7 26 4 12 -3 29 2 39 11 16 15 19 15
31 1 12 -14 15 -14 34 2 19 17 20 17 7 1 -12 -16 -11 -18 8 -18 12 0 19 -4 16
-10 -12 -19 12 -10 34 14 13 14 18 26 12 30 -5 4 -12 2 -16 -4 -10 -16 -25
-12 -18 5 3 9 -3 25 -12 35 -15 17 -16 20 -3 20 9 0 18 12 22 28 3 17 24 40
53 62 61 46 103 89 114 118 12 31 11 79 0 87 -6 3 -2 27 8 58 10 28 21 65 25
81 6 26 5 28 -8 17 -13 -11 -16 -11 -16 2 0 9 34 48 75 88 l74 72 -3 67 c-2
36 -9 77 -17 90 -7 14 -14 54 -15 90 -3 127 -4 138 -23 161 l-18 22 -30 -21
c-17 -12 -47 -54 -68 -94 -21 -40 -46 -85 -56 -99 -10 -14 -15 -29 -11 -33 3
-4 0 -11 -8 -16 -12 -8 -12 -10 -1 -10 10 0 11 -3 2 -13 -10 -13 -10 -35 5
-177 4 -41 7 -88 7 -104 -2 -35 -22 -86 -34 -86 -5 0 -9 -8 -9 -18 0 -10 -11
-29 -25 -42 -13 -12 -22 -27 -19 -31 6 -10 5 -11 -106 -13 -47 -1 -90 2 -97 6
-6 5 -14 5 -18 -2 -3 -6 -11 -7 -17 -4 -15 9 -69 11 -74 3 -3 -5 -43 1 -102
17 -7 2 -16 4 -20 5 -4 0 -12 5 -19 10 -7 7 -14 6 -19 -2 -4 -7 -3 -9 3 -6 5
3 10 0 10 -8 0 -10 -5 -10 -23 3 -13 9 -24 21 -24 26 0 5 8 2 18 -5 11 -8 9
-4 -4 11 -16 18 -20 31 -14 46 14 35 6 59 -19 58 -16 -1 -19 2 -11 11 5 6 6
16 2 20 -4 5 -1 5 6 1 7 -4 10 -12 7 -17 -4 -5 -4 -9 -1 -9 3 0 11 10 17 23 6
12 8 19 4 15 -14 -13 -35 12 -26 30 16 31 39 152 30 158 -5 3 -6 10 -3 16 4 6
10 5 15 -3 5 -9 7 1 5 24 -3 39 10 113 24 132 4 6 6 20 4 33 -3 16 0 21 8 16
7 -4 10 -4 6 1 -4 4 -3 14 2 20 18 21 -12 34 -85 38 -67 3 -66 3 20 5 85 2
233 16 282 27 21 5 21 5 3 54 l-18 50 29 25 c39 35 38 53 -3 51 -34 -1 -117
-35 -118 -47 0 -4 9 -22 20 -40 11 -18 20 -40 20 -48 -1 -8 -8 -1 -17 15 -29
56 -42 65 -84 59 -43 -7 -53 8 -18 26 12 7 18 18 15 26 -4 11 0 13 18 8 16 -4
32 3 55 22 37 31 36 39 -4 24 -25 -10 -27 -9 -15 6 10 11 23 14 44 9 17 -3 43
-7 57 -9 15 -2 39 -12 55 -22 l29 -17 -22 23 c-12 13 -30 24 -40 25 -10 1 -31
7 -46 14 -16 6 -40 11 -55 11 -18 0 -23 3 -14 9 7 4 24 6 37 3 20 -3 25 1 31
24 4 15 7 40 8 55 1 15 3 27 6 26 3 -1 39 31 79 72 41 40 92 81 115 91 64 28
135 34 186 16 64 -22 77 -20 111 16 28 31 56 94 46 104 -2 2 -16 0 -31 -5 -29
-12 -31 -7 -11 29 19 32 19 46 0 30 -21 -17 -39 -2 -20 17 38 38 -8 67 -62 39
-20 -10 -34 -11 -46 -5 -12 7 -25 5 -44 -6 -16 -9 -20 -14 -10 -11 24 8 21 -7
-8 -34 -22 -21 -30 -20 -26 3 0 4 -4 7 -10 7 -7 0 -9 -10 -5 -25 4 -14 2 -25
-4 -25 -5 0 -10 -5 -10 -11 0 -6 7 -8 16 -5 9 3 12 2 9 -5 -4 -6 -13 -8 -21
-5 -8 3 -14 1 -14 -5 0 -7 -10 -9 -26 -5 -17 5 -23 3 -19 -4 4 -6 1 -18 -6
-26 -6 -8 -9 -17 -6 -20 7 -8 104 43 110 58 3 7 6 8 6 2 1 -6 -8 -19 -18 -28
-11 -10 -17 -24 -14 -32 3 -8 0 -14 -7 -14 -6 0 -8 5 -5 10 13 21 -14 9 -33
-14 -21 -27 -92 -71 -92 -57 0 8 25 23 42 25 4 1 13 7 20 15 11 11 7 12 -21 6
-23 -5 -31 -4 -27 4 10 16 -7 13 -30 -5 -18 -15 -18 -15 0 -10 15 5 16 4 8 -7
-6 -7 -9 -23 -5 -35 3 -15 1 -22 -8 -23 -30 -3 -35 -5 -64 -26 -25 -19 -28
-24 -15 -33 11 -8 8 -9 -12 -4 -17 4 -28 2 -28 -5 0 -6 -7 -8 -17 -4 -12 5
-15 2 -11 -9 4 -9 -8 -31 -29 -54 -19 -21 -31 -31 -28 -21 6 13 3 16 -10 11
-15 -6 -16 -3 -10 27 l7 33 -23 -17 c-61 -44 -106 -47 -101 -6 2 14 -6 47 -18
73 -11 26 -18 52 -15 57 3 4 22 16 41 25 20 10 38 24 41 33 2 9 8 23 13 32 5
10 4 21 -2 27 -7 7 1 8 23 3 35 -7 63 -44 54 -69 -3 -7 0 -10 5 -7 6 3 11 -4
11 -17 1 -16 3 -18 6 -6 6 24 -34 111 -66 142 -23 22 -32 25 -52 17 -14 -6
-18 -10 -9 -11 10 -1 9 -4 -5 -10 -11 -4 -29 -6 -40 -4 -11 2 -33 -5 -50 -16
-21 -14 -25 -20 -13 -20 9 0 20 5 23 10 10 16 72 12 89 -6 20 -20 21 -35 1
-28 -9 4 -33 -6 -55 -21 -44 -30 -130 -46 -190 -34 -19 4 -52 10 -72 13 -31 6
-42 14 -57 43 l-18 36 -23 -31 c-38 -51 -46 -41 -48 59 -3 101 -18 143 -57
161 -14 6 -25 16 -25 21 0 6 -3 7 -7 4 -3 -4 3 -17 14 -30 16 -17 19 -28 12
-44 -9 -25 -21 -28 -50 -13 -22 12 -26 32 -5 24 10 -4 12 2 9 20 -3 14 -10 26
-15 26 -6 0 -4 7 3 16 8 9 12 27 11 40 -5 35 16 29 32 -8 9 -21 15 -26 15 -15
2 43 -70 129 -119 141 -19 5 -16 1 12 -16 21 -13 38 -31 38 -40 0 -10 3 -17 8
-17 4 1 14 1 22 -1 11 -1 9 -4 -5 -10 -42 -18 -61 -11 -94 35 l-32 45 -65 0
c-35 0 -64 -3 -64 -7 2 -33 38 -158 45 -158 21 0 96 -69 90 -83 -5 -15 -6 -15
83 5 12 3 22 1 22 -3 0 -12 -49 -34 -76 -34 -40 0 -34 -16 11 -28 44 -12 115
-64 115 -85 0 -6 -11 0 -24 12 -15 14 -30 20 -37 16 -7 -5 -10 -4 -6 2 7 11
-91 59 -100 50 -2 -3 5 -8 16 -12 14 -4 18 -11 14 -23 -6 -15 -5 -16 13 -2 19
14 19 14 0 -8 -19 -22 -19 -22 5 -50 13 -15 25 -29 27 -31 1 -3 8 3 15 13 16
23 47 11 47 -18 0 -12 -6 -31 -14 -41 -8 -11 -12 -25 -9 -32 3 -7 0 -13 -6
-13 -6 0 -11 -9 -11 -20 0 -30 -28 -80 -45 -80 -8 0 -20 -9 -27 -20 -7 -11
-18 -20 -25 -20 -6 0 -13 -5 -15 -10 -4 -14 -75 -39 -110 -40 -19 0 -26 4 -22
14 5 14 -50 31 -67 20 -5 -3 -9 2 -9 10 0 14 -93 66 -118 66 -6 0 -22 -16 -36
-36 -13 -20 -34 -43 -46 -51 -23 -16 -23 -16 -16 13 6 26 5 27 -7 12 -8 -10
-17 -15 -20 -11 -4 3 -3 11 2 17 5 6 14 29 21 51 24 75 60 135 118 193 75 77
118 97 206 96 38 0 64 2 58 4 -14 4 -16 32 -3 32 5 0 11 -7 15 -15 3 -8 13
-15 23 -15 14 0 15 2 4 9 -10 7 -11 13 -1 31 15 29 6 37 -25 20 -23 -12 -28
-11 -55 15 -17 16 -35 47 -41 70 -6 22 -15 48 -20 57 -4 9 -4 18 0 20 9 3 -13
100 -31 136 -6 12 -18 22 -25 22 -10 0 -12 -7 -8 -22 6 -22 6 -22 -14 2 l-21
25 15 -50z m670 -592 c39 -20 103 -80 122 -117 8 -15 17 -61 20 -101 5 -63 3
-79 -20 -129 -26 -57 -56 -81 -37 -30 9 22 8 25 -5 20 -8 -3 -15 -1 -15 4 0 6
-9 10 -20 10 -11 0 -20 -5 -20 -10 0 -7 -7 -7 -20 0 -12 6 -31 10 -43 8 -14
-2 -23 3 -25 15 -3 13 3 17 23 17 31 0 95 28 95 41 0 5 -7 9 -16 9 -10 0 -14
6 -11 14 4 10 -5 16 -33 21 -37 6 -38 7 -22 26 9 10 25 19 35 19 15 0 18 5 14
23 -10 36 7 53 38 39 36 -17 38 -15 19 13 -18 27 -73 65 -95 65 -8 0 -2 -7 13
-14 39 -21 74 -46 63 -46 -5 0 -28 9 -51 21 -37 17 -46 18 -66 8 -13 -7 -31
-12 -40 -10 -10 1 -18 -3 -18 -9 0 -6 -5 -8 -12 -3 -7 4 -20 7 -28 5 -8 -1
-21 2 -29 7 -12 8 -12 12 -2 25 12 14 10 16 -10 16 l-24 1 25 14 c14 8 41 14
60 13 20 -1 41 2 48 6 6 4 21 2 33 -5 27 -14 79 -29 79 -23 0 3 -21 14 -46 25
-35 16 -59 20 -101 16 -56 -5 -63 8 -8 16 41 5 94 -3 130 -20z m-504 -205 c3
-25 -3 -43 -18 -60 -9 -10 -13 -26 -10 -38 6 -23 7 -23 -88 -10 -80 10 -108 1
-50 -16 27 -8 32 -13 18 -13 -13 -1 -23 -5 -23 -11 0 -5 -7 -10 -16 -10 -14 0
-14 3 -4 15 9 11 10 15 1 15 -16 0 -41 -25 -41 -41 0 -9 -3 -10 -11 -2 -8 8
-7 17 1 34 10 20 10 22 -1 12 -18 -17 -32 -16 -26 1 3 8 -1 17 -9 20 -8 3 -14
14 -14 25 0 16 20 24 138 54 166 42 152 40 153 25z m-185 -408 l27 -11 -23
-21 c-22 -20 -22 -22 -4 -35 15 -11 15 -13 2 -13 -10 0 -15 -9 -15 -25 0 -14
5 -25 11 -25 6 0 5 -4 -3 -9 -8 -5 -21 -7 -30 -4 -9 2 -7 -1 4 -8 11 -7 26
-20 33 -28 11 -14 12 -14 10 4 -1 11 1 26 6 34 5 8 3 16 -5 22 -11 7 -10 9 4
9 18 0 24 -25 7 -35 -6 -4 -5 -11 3 -20 9 -10 16 -10 27 -2 8 7 6 1 -5 -12
-24 -28 -24 -24 -2 -49 12 -13 15 -22 7 -27 -15 -9 -2 -25 15 -18 8 3 15 1 15
-4 0 -15 -38 -13 -51 3 -14 17 -49 19 -49 3 0 -6 6 -9 14 -6 8 3 20 -1 26 -9
10 -11 9 -14 -4 -14 -28 0 4 -26 42 -35 35 -7 41 -19 16 -29 -8 -3 -13 -2 -10
2 2 4 -18 7 -45 7 -40 0 -46 -2 -34 -12 10 -6 12 -14 6 -17 -5 -4 -13 -1 -16
5 -4 5 -14 8 -23 4 -9 -3 -13 -3 -9 1 4 4 -7 23 -25 41 -25 26 -28 33 -13 27
17 -5 17 -4 -3 11 -19 14 -21 19 -11 32 10 12 10 16 -2 24 -11 7 -11 9 4 9 13
0 17 7 15 27 -2 16 2 28 9 28 15 0 26 12 29 33 2 9 8 18 14 20 7 3 0 17 -17
35 -15 16 -22 27 -16 23 9 -5 11 -2 7 8 -3 9 -11 13 -17 9 -6 -3 -7 -1 -3 6 4
6 12 9 17 6 5 -4 12 1 15 9 3 9 10 13 15 10 5 -3 6 2 3 10 -7 19 -4 19 32 6z
m-540 -1861 c0 -14 4 -30 8 -37 4 -8 7 -30 6 -50 -1 -20 -2 -47 -2 -59 0 -48
-30 -10 -37 47 0 6 -6 10 -12 10 -8 0 -8 -5 1 -15 11 -13 8 -13 -23 0 -46 19
-96 13 -117 -14 -10 -14 -22 -20 -33 -16 -15 6 -15 9 0 31 9 15 25 24 42 24
24 1 24 2 9 14 -10 7 -15 16 -11 19 3 4 0 14 -7 22 -10 12 -10 19 -2 27 9 9
16 6 31 -11 12 -13 22 -18 26 -11 3 5 24 10 45 10 30 0 40 4 45 21 9 27 30 19
31 -12z"/>
<path d="M1520 3860 c0 -3 10 -11 23 -16 12 -6 16 -9 10 -7 -7 1 -23 -2 -35
-8 l-23 -10 22 5 c12 2 30 -2 40 -10 17 -13 17 -15 -1 -29 -16 -12 -16 -15 -4
-15 8 0 23 -9 33 -20 17 -19 17 -20 -8 -31 -15 -7 -24 -16 -21 -21 3 -5 15 -1
26 9 19 17 20 17 34 -2 8 -10 14 -15 14 -9 1 5 9 -1 19 -13 17 -21 20 -21 32
-6 12 15 12 16 -3 11 -10 -4 -19 -1 -22 8 -3 8 -12 14 -21 14 -20 0 -19 10 4
40 16 20 21 22 35 11 12 -10 16 -10 16 -2 0 7 5 9 12 5 7 -5 21 -9 31 -9 21
-2 87 -63 87 -82 0 -7 14 -20 31 -29 29 -14 33 -14 47 0 15 15 15 16 -1 16 -9
0 -17 7 -17 15 0 8 -8 16 -17 16 -41 3 -47 5 -51 19 -5 13 -3 13 13 0 17 -14
18 -13 12 4 -6 16 -5 17 8 6 11 -9 15 -9 15 -1 0 17 -30 25 -43 12 -6 -6 -15
-11 -21 -11 -5 0 -6 3 -3 7 13 12 -58 46 -101 48 -23 2 -48 7 -55 13 -6 5 -24
12 -39 16 -25 6 -40 26 -20 26 4 0 8 8 8 18 0 12 -9 17 -33 18 -18 0 -33 -2
-33 -6z"/>
<path d="M1252 3729 c4 -11 -2 -21 -19 -30 -20 -11 -27 -11 -30 -2 -3 8 -15
10 -34 6 -23 -4 -29 -2 -29 11 0 15 -2 15 -13 4 -7 -7 -16 -22 -20 -32 -7 -19
-7 -19 10 -3 11 9 24 13 31 8 10 -6 4 -13 -20 -24 -18 -9 -38 -24 -45 -35 -6
-11 -26 -22 -45 -27 -18 -4 -27 -9 -20 -12 6 -2 10 -9 6 -14 -3 -5 0 -9 6 -9
7 0 10 7 6 15 -3 8 -1 15 4 15 9 0 12 -14 9 -36 0 -4 5 -10 12 -15 8 -4 10
-11 6 -15 -4 -4 -13 0 -20 9 -11 15 -13 14 -24 -9 -11 -24 -10 -26 7 -21 23 6
27 -8 6 -16 -13 -5 -45 20 -38 30 1 1 2 17 2 33 0 35 -12 38 -40 10 -17 -17
-18 -24 -9 -41 7 -13 7 -19 1 -15 -6 3 -13 2 -17 -4 -3 -5 -2 -10 3 -10 6 0
13 -7 16 -16 4 -10 2 -13 -7 -8 -6 4 -4 -2 6 -13 14 -16 15 -22 5 -26 -9 -4
-9 -6 -1 -6 6 -1 18 7 25 17 19 27 56 44 79 37 18 -6 19 -5 10 14 -10 18 -9
21 8 21 11 0 21 -8 23 -17 2 -11 16 0 45 39 23 31 39 59 35 63 -4 4 -2 5 3 4
17 -5 55 21 55 37 0 14 -2 14 -16 0 -20 -20 -38 -21 -30 -1 4 10 -1 15 -16 15
-17 0 -19 -3 -10 -12 7 -7 12 -16 12 -21 0 -5 -7 -1 -16 8 -16 15 -15 18 4 38
16 15 25 18 33 10 10 -10 55 0 87 20 6 5 16 6 21 3 5 -3 12 1 15 9 4 12 0 15
-22 12 -15 -3 -33 1 -41 7 -12 9 -13 8 -9 -5z"/>
<path d="M1039 3424 c-1 -2 -2 -9 -3 -15 0 -5 -11 -21 -24 -34 -13 -14 -21
-29 -18 -34 3 -5 -1 -14 -9 -21 -8 -7 -12 -17 -9 -22 4 -6 0 -14 -7 -19 -10
-6 -3 -17 29 -45 24 -20 41 -39 38 -42 -3 -3 -16 3 -28 14 -12 10 -3 -3 20
-30 23 -27 42 -53 42 -57 0 -5 5 -9 11 -9 8 0 8 4 0 14 -14 16 -25 88 -26 161
0 28 -4 53 -10 57 -6 5 -5 8 3 8 6 0 12 4 12 10 0 5 -8 6 -17 3 -16 -6 -16 -5
-4 10 7 9 17 14 22 11 5 -3 9 -1 9 5 0 5 2 16 5 23 4 9 -2 14 -15 15 -11 1
-21 0 -21 -3z"/>
<path d="M945 3202 c14 -98 49 -231 90 -342 42 -113 43 -117 49 -280 9 -223
23 -406 40 -520 8 -52 18 -126 22 -165 7 -68 6 -69 -12 -55 -10 8 3 -8 31 -37
27 -28 51 -51 52 -50 0 1 -10 76 -23 167 -19 122 -24 193 -21 275 3 76 -2 144
-15 220 -20 124 -22 182 -8 219 8 21 1 44 -42 138 -46 100 -52 121 -53 185 -1
40 -7 78 -13 86 -15 18 -60 138 -65 173 -2 17 -10 28 -21 30 -16 2 -17 -3 -11
-44z"/>
<path d="M3769 3222 c29 -25 31 -29 18 -47 -16 -21 -17 -21 -100 21 -16 8 -40
14 -54 14 l-26 0 27 -21 c29 -23 36 -69 11 -69 -8 0 -15 5 -15 10 0 6 -8 10
-17 10 -17 -1 -17 -1 0 -11 9 -6 15 -14 12 -20 -4 -5 2 -6 11 -2 13 5 16 3 11
-10 -5 -14 0 -17 32 -17 24 0 41 5 44 14 4 9 15 12 33 8 23 -4 26 -2 21 13 -5
12 -3 16 7 12 8 -3 20 2 28 11 8 10 8 13 1 9 -6 -4 -14 -3 -18 3 -6 10 7 14
33 11 6 -1 12 3 12 9 0 5 -8 10 -17 10 -14 0 -15 2 -5 9 25 15 9 46 -21 44
-15 -1 -25 1 -23 6 3 4 -5 8 -16 8 -18 2 -16 -2 11 -25z"/>
<path d="M2828 2749 c-20 -21 -30 -35 -23 -33 8 3 22 1 32 -5 16 -9 16 -10 -6
-11 -13 0 -40 -12 -59 -27 -20 -15 -32 -20 -27 -12 8 12 6 12 -9 0 -9 -8 -15
-20 -12 -28 3 -8 2 -11 -4 -8 -5 3 -14 -4 -20 -16 -7 -11 -14 -18 -17 -15 -4
3 -13 0 -22 -8 -9 -8 -20 -14 -25 -13 -5 1 -20 -15 -33 -35 -27 -43 -24 -48 8
-15 12 12 19 17 15 10 -9 -16 13 -28 27 -14 6 6 28 11 48 11 21 0 41 5 45 11
5 8 10 6 16 -5 8 -14 12 -15 26 -4 13 11 14 11 7 -1 -6 -11 -1 -13 24 -9 17 2
31 1 31 -3 0 -5 6 -6 13 -3 8 3 26 0 42 -6 31 -12 46 -1 40 29 -3 16 -43 192
-50 221 -2 8 -4 18 -4 21 -2 16 -31 2 -63 -32z"/>
<path d="M4005 2223 c-21 -26 -55 -66 -74 -88 -20 -23 -86 -101 -147 -175 -61
-74 -166 -189 -232 -254 -67 -66 -121 -121 -119 -122 3 -4 114 37 181 65 67
30 177 53 279 60 5 1 5 6 1 13 -4 6 -3 8 3 5 12 -8 92 13 121 31 33 21 55 69
47 101 -4 14 -7 107 -6 206 1 99 -3 186 -7 193 -6 10 -19 0 -47 -35z"/>
<path d="M691 1751 c-12 -8 -10 -15 10 -40 13 -16 31 -33 41 -36 9 -3 36 -31
59 -62 24 -30 102 -109 174 -175 71 -66 154 -145 183 -176 28 -30 55 -53 58
-49 10 10 -239 289 -347 389 -55 51 -108 108 -119 126 -20 33 -34 38 -59 23z"/>
<path d="M4408 1637 c-26 -21 -40 -46 -59 -110 -6 -23 -5 -28 6 -23 9 3 12 0
8 -10 -3 -8 -11 -13 -17 -11 -18 6 -47 -45 -34 -60 17 -21 -8 -41 -61 -48 -35
-5 -57 -15 -76 -35 -30 -31 -29 -32 27 -44 15 -4 44 -21 64 -38 29 -26 39 -30
54 -21 9 6 45 17 79 24 33 6 61 13 61 15 0 2 -9 13 -20 24 -12 12 -18 26 -14
32 4 6 3 8 -4 5 -5 -4 -21 -3 -34 2 -12 6 -17 10 -10 10 17 1 15 21 -3 21 -8
0 -15 5 -15 11 0 6 8 8 19 4 13 -4 23 0 30 12 6 10 11 12 11 6 0 -17 28 -16
46 1 17 17 18 27 3 24 -6 -2 -13 2 -16 8 -5 14 29 13 40 -1 4 -5 5 3 1 19 -6
26 -5 28 17 22 13 -3 18 -3 12 0 -7 3 -13 12 -13 20 0 8 -7 17 -15 20 -8 4
-15 10 -15 16 0 5 5 6 10 3 15 -9 12 4 -4 21 -8 8 -21 14 -28 14 -8 0 -9 3 -2
8 14 10 26 42 14 42 -5 0 -12 9 -15 20 -8 25 -14 25 -47 -3z"/>
<path d="M407 1520 c11 -14 23 -34 25 -45 2 -11 10 -19 17 -17 7 1 10 -2 7 -7
-3 -5 10 -21 29 -35 24 -19 32 -31 28 -44 -6 -14 -4 -15 9 -5 12 11 19 8 41
-17 15 -16 51 -44 81 -60 51 -29 86 -70 113 -132 7 -15 22 -29 35 -32 13 -2
43 -8 69 -13 l45 -9 -39 58 c-32 49 -38 63 -32 90 4 18 16 43 27 55 25 27 17
53 -15 53 -13 0 -29 6 -36 13 -11 10 -13 8 -8 -10 3 -14 -3 -31 -17 -48 l-21
-25 -110 55 c-80 40 -132 75 -190 127 -44 40 -70 61 -58 48z"/>
<path d="M3742 1424 c-12 -8 -22 -12 -22 -8 0 5 -11 -7 -25 -26 -14 -19 -25
-43 -25 -54 -1 -19 -1 -20 -11 -3 -5 9 -7 22 -3 28 3 6 0 15 -7 20 -23 15 -30
10 -23 -16 3 -14 3 -37 0 -51 -6 -24 -9 -25 -24 -12 -43 37 -42 25 1 -17 47
-46 48 -46 100 -41 28 3 53 10 55 16 2 5 8 10 14 10 5 0 23 12 38 28 50 46 60
53 70 47 6 -3 10 -2 10 4 0 5 -9 12 -19 16 -11 3 -22 12 -25 20 -3 8 -12 12
-20 9 -11 -4 -13 0 -9 16 5 19 3 21 -17 15 -13 -4 -25 -3 -29 4 -5 7 -14 6
-29 -5z"/>
<path d="M4292 1211 c-61 -21 -57 -18 -66 -53 -6 -24 -3 -28 16 -28 36 0 121
-44 167 -85 40 -36 46 -35 41 9 -1 17 45 76 61 76 3 0 9 -13 13 -30 3 -18 12
-30 21 -30 14 0 14 3 -1 25 -9 14 -14 28 -11 31 3 3 -4 17 -15 30 -15 16 -25
21 -33 14 -8 -7 -20 -4 -36 8 -13 10 -42 26 -65 34 -37 15 -44 15 -92 -1z"/>
<path d="M152 1005 c4 -4 1 -14 -7 -22 -13 -13 -13 -17 2 -37 10 -14 24 -21
33 -18 8 3 -1 -12 -20 -33 -26 -28 -29 -35 -12 -26 12 6 22 16 22 21 0 6 4 10
8 10 4 0 8 -9 8 -19 0 -11 -4 -18 -7 -15 -4 2 -11 -1 -15 -7 -4 -8 -3 -9 4 -5
7 4 12 2 12 -5 0 -7 8 -5 22 7 17 16 20 16 15 3 -3 -9 0 -22 6 -29 9 -10 9
-14 0 -17 -26 -9 -11 -19 47 -32 35 -8 70 -23 86 -38 l27 -25 -7 64 c-8 63
-15 83 -23 61 -3 -9 -18 -6 -51 12 -64 34 -74 43 -106 97 -15 27 -33 51 -39
55 -7 3 -9 3 -5 -2z"/>
<path d="M4247 961 c-3 -13 -11 -19 -19 -16 -11 5 -14 -1 -10 -26 3 -19 1 -29
-5 -26 -6 4 -16 -6 -24 -21 -8 -15 -20 -33 -26 -40 -7 -7 -13 -19 -13 -27 0
-25 -52 -48 -109 -49 -68 -1 -81 -9 -81 -46 0 -45 -56 -109 -115 -131 -59 -23
-93 -25 -77 -6 8 9 4 12 -14 12 -15 0 -22 -5 -20 -12 3 -7 1 -15 -4 -18 -24
-15 -4 -21 70 -22 46 0 77 4 74 9 -4 5 8 2 25 -6 17 -9 31 -19 31 -22 0 -2 -9
0 -19 6 -24 12 -34 13 -27 1 4 -6 -32 -9 -84 -9 -90 1 -111 8 -91 31 12 15 11
58 -1 51 -4 -3 -31 -5 -59 -6 -35 0 -57 6 -71 19 -17 14 -20 14 -16 3 4 -11 0
-16 -12 -16 -10 0 -18 4 -17 9 1 5 -4 12 -10 14 -7 3 -13 0 -13 -6 0 -7 -8 -7
-24 -1 -13 5 -27 6 -31 2 -3 -3 -10 0 -14 7 -6 10 -14 11 -27 3 -14 -8 -21 -6
-30 6 -7 10 -16 14 -20 10 -4 -5 1 -17 12 -29 10 -12 18 -30 16 -40 -4 -21 20
-35 39 -24 8 6 7 10 -2 16 -8 5 -9 9 -4 9 6 0 18 -9 27 -19 33 -39 163 -57
383 -56 215 2 357 11 418 26 75 19 176 104 169 142 -1 4 3 7 8 7 6 0 10 12 9
28 0 15 -3 21 -6 15 -2 -7 -9 -13 -14 -13 -5 0 -4 11 3 24 9 22 7 28 -28 60
-22 20 -43 36 -48 36 -5 0 -3 6 3 14 9 11 6 20 -14 45 -15 17 -24 35 -21 39 3
5 -6 20 -19 32 -14 13 -25 19 -25 14 0 -5 -4 -3 -9 4 -6 10 -10 9 -14 -7z"/>
<path d="M3261 871 l-21 -19 57 -8 c32 -4 65 -9 73 -10 8 -1 40 -12 70 -23
129 -49 342 -72 435 -47 28 8 43 15 35 16 -22 3 -22 3 -53 -4 -18 -4 -26 -3
-23 3 10 16 -16 25 -79 27 -65 2 -241 12 -291 17 -16 2 -44 11 -62 20 -18 8
-32 12 -32 7 0 -4 -9 -6 -20 -3 -11 3 -20 10 -20 15 0 6 -11 8 -24 6 -17 -4
-23 -1 -19 9 7 18 0 16 -26 -6z"/>
<path d="M4510 819 c0 -46 -7 -71 -35 -124 -32 -62 -33 -66 -12 -60 72 21 172
89 160 108 -3 6 -2 7 4 4 11 -7 63 46 63 63 0 5 -12 10 -27 10 -16 0 -42 12
-61 28 -20 17 -45 29 -63 29 -29 0 -29 -1 -29 -58z"/>
</g>
</svg>
